<svg width="30" height="30" viewBox="0 0 30 30" fill="none" xmlns="http://www.w3.org/2000/svg">
<path fill-rule="evenodd" clip-rule="evenodd" d="M14.6896 30C22.8025 30 29.3792 23.2843 29.3792 15C29.3792 6.71574 22.8025 0 14.6896 0C6.57675 0 0 6.71574 0 15C0 23.2843 6.57675 30 14.6896 30ZM19.2723 6.98764C19.4953 6.17854 18.7264 5.7001 18.0242 6.21098L8.22112 13.3422C7.45954 13.8962 7.57933 15 8.40107 15H10.9825V14.9796H16.0135L11.9142 16.4566L10.107 23.0124C9.88391 23.8215 10.6528 24.2999 11.3551 23.789L21.1581 16.6579C21.9197 16.1038 21.7998 15 20.9782 15H17.0635L19.2723 6.98764Z" fill="#00B3FF"/>
</svg>
